<?xml version="1.0" encoding="UTF-8" standalone="no"?>
<!-- Svg Vector Icons : http://www.onlinewebfonts.com/icon -->

<svg
   version="1.1"
   x="0px"
   y="0px"
   viewBox="0 0 1000 1000"
   enable-background="new 0 0 1000 1000"
   xml:space="preserve"
   id="svg36"
   sodipodi:docname="linked-child.svg"
   inkscape:version="1.2.2 (732a01da63, 2022-12-09)"
   xmlns:inkscape="http://www.inkscape.org/namespaces/inkscape"
   xmlns:sodipodi="http://sodipodi.sourceforge.net/DTD/sodipodi-0.dtd"
   xmlns="http://www.w3.org/2000/svg"
   xmlns:svg="http://www.w3.org/2000/svg"><defs
   id="defs40" /><sodipodi:namedview
   id="namedview38"
   pagecolor="#ffffff"
   bordercolor="#000000"
   borderopacity="0.25"
   inkscape:showpageshadow="2"
   inkscape:pageopacity="0.0"
   inkscape:pagecheckerboard="0"
   inkscape:deskcolor="#d1d1d1"
   showgrid="false"
   inkscape:zoom="1"
   inkscape:cx="229.5"
   inkscape:cy="641"
   inkscape:window-width="1920"
   inkscape:window-height="1009"
   inkscape:window-x="-8"
   inkscape:window-y="-8"
   inkscape:window-maximized="1"
   inkscape:current-layer="svg36" />
<metadata
   id="metadata22"> Svg Vector Icons : http://www.onlinewebfonts.com/icon </metadata>
<g
   id="g34"><g
     transform="translate(0.000000,511.000000) scale(0.100000,-0.100000)"
     id="g32"><path
       d="M4860.2,4999.6c-361.3-51.6-671-354.9-742-729.1c-28-148.4-28-1012.9,0-1163.5c40.9-215.1,169.9-408.6,389.3-589.3c73.1-60.2,77.4-71,68.8-163.5l-10.7-98.9l-367.7-184.9c-479.6-240.9-1002.2-522.6-1056-569.9c-73.1-64.5-120.4-200-120.4-346.3v-137.6l726.9,12.9c397.9,8.6,1288.2,15.1,1978.6,15.1h1251.7v129c0,148.4-30.1,217.2-133.3,316.1c-64.5,62.4-486,292.5-1135.5,623.7l-247.3,124.7l-15.1,118.3c-15,111.8-10.7,120.4,43,159.1c120.4,86,264.5,258.1,331.2,395.7l71,141.9l6.4,550.6c8.6,604.3-6.4,731.2-103.2,924.8c-66.7,133.3-249.5,318.3-378.5,382.8C5238.7,4999.6,5066.7,5027.5,4860.2,4999.6z"
       id="path24" /><path
       d="M4905.4,698.4l-55.9-43V160.7v-492.5H3215c-1606.5,0-1634.5,0-1677.5-43c-40.9-40.8-43-71-43-653.8c0-608.6,0-612.9,47.3-645.2c73.1-51.6,157-43,208.6,21.5c43,53.8,45.2,83.9,45.2,537.7v481.7H5000h3204.4v-481.7c0-453.8,2.1-483.9,45.2-537.7c51.6-64.5,135.5-73.1,208.6-21.5c47.3,32.3,47.3,36.5,47.3,645.2c0,582.8-2.1,612.9-43,653.8c-43,43-71,43-1677.5,43H5150.5v483.9v486l-53.8,51.6C5032.2,754.3,4980.6,756.4,4905.4,698.4z"
       id="path26" /><path
       d="M1509.6-2030.8c-189.3-47.3-331.2-163.4-425.8-344.1c-49.5-92.5-51.6-116.1-51.6-559.2c0-436.6,2.1-466.7,47.3-550.5c49.5-92.5,157-215.1,234.4-268.8c34.4-23.7,43-45.2,36.6-98.9c-10.8-66.7-32.3-79.6-402.2-271c-212.9-111.8-436.6-232.3-496.8-266.7c-124.7-73.1-182.8-167.7-182.8-305.4v-94.6l359.2,12.9c195.7,8.6,815.1,15.1,1376.4,15.1h1017.2v75.3c0,90.3-38.7,174.2-111.8,240.9c-25.8,25.8-249.5,148.4-494.6,275.3l-443,227.9l-15.1,86c-12.9,77.4-8.6,92.5,34.4,122.6c79.6,53.8,167.7,157,219.4,251.6c45.2,81.7,47.3,114,47.3,548.4c0,460.2,0,462.4-58.1,572.1C2068.7-2112.5,1767.6-1968.4,1509.6-2030.8z"
       id="path28" /><path
       d="M8200.1-2039.4c-210.8-58.1-374.2-219.4-436.6-428c-23.7-77.4-32.3-212.9-32.3-466.7c0-468.8,19.4-539.8,202.2-722.6c120.4-118.3,133.3-142,124.7-206.5c-6.4-68.8-19.4-77.4-350.5-243c-567.8-281.7-653.8-337.7-696.8-447.3c-19.4-51.6-32.3-122.6-27.9-157l6.4-62.4h189.2c103.2,0,720.5,4.3,1369.9,6.5l1182.9,4.3v96.8c0,172.1-79.6,232.3-765.6,578.5c-275.3,137.6-281.7,144.1-294.6,221.5c-12.9,75.3-6.4,86,92.5,178.5c60.2,55.9,129,146.2,159.2,215.1c53.8,114,55.9,135.5,55.9,518.3c0,477.4-19.4,567.8-161.3,724.8C8662.5-2056.6,8413-1979.1,8200.1-2039.4z"
       id="path30" /></g></g>
<path
   sodipodi:type="star"
   style="fill:none"
   id="path4186"
   inkscape:flatsided="false"
   sodipodi:sides="5"
   sodipodi:cx="162.84679"
   sodipodi:cy="794.93365"
   sodipodi:r1="109.53195"
   sodipodi:r2="45.599659"
   sodipodi:arg1="0.93390305"
   sodipodi:arg2="1.5622215"
   inkscape:rounded="0"
   inkscape:randomized="0"
   d="m 227.98551,882.99156 -64.74772,-42.45992 -64.010076,43.56401 20.373646,-74.69958 -61.212048,-47.41518 77.339328,-3.70695 26.17895,-72.86821 27.42469,72.40856 77.39153,2.38014 -60.38994,48.45791 z"
   inkscape:transform-center-x="0.40653267"
   inkscape:transform-center-y="-6.4582034"
   transform="matrix(0.5599542,0,0,0.8057238,72.738603,165.72737)" /><path
   style="fill:#6ab446;fill-opacity:1;stroke-width:0.0133276"
   d="m 28.394357,973.31683 c 0,-0.0207 0.07539,-0.38915 0.09451,-0.46192 l 0.01314,-0.05 H 41.18266 53.863315 v 0.0513 0.0514 l -1.955818,0.009 c -11.814928,0.0546 -18.674678,0.13954 -21.647282,0.26818 -0.473807,0.0205 -0.502117,0.0221 -0.979576,0.0539 -0.297725,0.0199 -0.714672,0.0624 -0.82964,0.0847 -0.04361,0.008 -0.05664,0.007 -0.05664,-0.007 z"
   id="path5305" /><path
   style="fill:#6ab446;fill-opacity:1"
   d="m 27.664656,979.84211 c 0.35217,-9.144 0.738863,-10.96354 3.337926,-15.70633 5.215083,-9.51652 6.007357,-10.00705 74.446698,-46.09296 C 132.88317,903.57779 135.5,901.42906 135.5,893.36761 c 0,-2.86266 -0.71605,-4.13907 -3.75,-6.68465 -11.35642,-9.5284 -23.72561,-25.24968 -26.38115,-33.53053 -1.59917,-4.98672 -2.41512,-77.9288 -1.00105,-89.48921 3.32356,-27.17102 30.70045,-50.58447 59.22224,-50.64844 8.65137,-0.0194 20.27214,3.0281 29.21044,7.66033 9.77026,5.06339 21.95331,17.23911 27.0064,26.99014 5.39637,10.41346 5.91855,16.35421 5.49031,62.4615 -0.34621,37.2758 -0.4781,39.6516 -2.47592,44.59838 -3.13708,7.76773 -10.0016,16.77566 -19.76781,25.94021 l -8.7014,8.16534 0.68369,4.83466 c 0.37603,2.65906 0.98179,6.36071 1.34613,8.22588 0.75214,3.85042 -2.79408,1.7569 44.61812,26.34042 33.92738,17.59155 46.94444,24.9795 51.28874,29.10937 1.8088,1.71953 4.6213,5.79312 6.25,9.05243 2.47451,4.95193 2.96126,7.13254 2.96126,13.26628 V 987 l -88.25,0.006 c -82.92793,0.006 -165.265773,1.18149 -179.616829,2.56436 l -6.366829,0.61351 0.398314,-10.3421 z"
   id="path6109" /></svg>
