<?xml version="1.0" encoding="UTF-8" standalone="no"?>
<!-- Svg Vector Icons : http://www.onlinewebfonts.com/icon -->

<svg
   version="1.1"
   x="0px"
   y="0px"
   viewBox="0 0 1000 1000"
   enable-background="new 0 0 1000 1000"
   xml:space="preserve"
   id="svg36"
   sodipodi:docname="linked-companion.svg"
   inkscape:version="1.2.2 (732a01da63, 2022-12-09)"
   xmlns:inkscape="http://www.inkscape.org/namespaces/inkscape"
   xmlns:sodipodi="http://sodipodi.sourceforge.net/DTD/sodipodi-0.dtd"
   xmlns="http://www.w3.org/2000/svg"
   xmlns:svg="http://www.w3.org/2000/svg"><defs
   id="defs40" /><sodipodi:namedview
   id="namedview38"
   pagecolor="#ffffff"
   bordercolor="#000000"
   borderopacity="0.25"
   inkscape:showpageshadow="2"
   inkscape:pageopacity="0.0"
   inkscape:pagecheckerboard="0"
   inkscape:deskcolor="#d1d1d1"
   showgrid="false"
   inkscape:zoom="0.829"
   inkscape:cx="-97.104946"
   inkscape:cy="611.58022"
   inkscape:window-width="1920"
   inkscape:window-height="1009"
   inkscape:window-x="-8"
   inkscape:window-y="-8"
   inkscape:window-maximized="1"
   inkscape:current-layer="g32" />
<metadata
   id="metadata22"> Svg Vector Icons : http://www.onlinewebfonts.com/icon </metadata>
<g
   id="g34"><g
     transform="translate(0.000000,511.000000) scale(0.100000,-0.100000)"
     id="g32"><path
       d="m 2269.0872,4439.6352 c -31.4957,-37.2698 -33.113,-64.8568 -33.113,-597.2308 0,-555.9416 0,-559.8696 36.4243,-589.3748 56.2924,-47.1355 120.9015,-39.2796 160.6373,19.6397 33.1128,49.1449 34.8072,76.6405 34.8072,491.1762 V 4203.867 H 4935.4614 7403.08 v -440.0215 c 0,-414.5357 1.6172,-442.0313 34.8072,-491.1762 39.7355,-58.9193 104.3447,-66.7752 160.6371,-19.6397 36.4242,29.5052 36.4242,33.3419 36.4242,589.3748 0,532.374 -1.617,559.8696 -33.113,597.2308 -2636.8024,30.5591 -2627.6741,5.384 -5332.7483,0 z"
       id="path26"
       sodipodi:nodetypes="csccscccsccscc"
       style="stroke-width:0.838715" /><path
       d="m 2267.2808,-4040.2496 c -31.4957,37.1679 -33.113,64.6793 -33.113,595.5975 0,554.421 0,558.3385 36.4243,587.7629 56.2924,47.0065 120.9015,39.1721 160.6373,-19.586 33.1128,-49.0105 34.8072,-76.4309 34.8072,-489.8328 v -438.8182 H 4933.655 7401.2736 v 438.8182 c 0,413.4019 1.6172,440.8223 34.8072,489.8328 39.7355,58.7581 104.3447,66.5925 160.6371,19.586 36.4242,-29.4244 36.4242,-33.2507 36.4242,-587.7629 0,-530.9182 -1.617,-558.3385 -33.113,-595.5975 -2636.8024,-30.4755 -2627.6741,-5.3692 -5332.7483,0 z"
       id="path26-7"
       sodipodi:nodetypes="csccscccsccscc"
       style="stroke-width:0.837567" /><path
       d="m 2283.2401,2619.1751 c -329.4014,-85.0351 -576.3218,-293.7577 -740.9355,-618.617 -86.1351,-166.2949 -89.7893,-208.7225 -89.7893,-1005.31996 0,-784.9119 3.6542,-839.0251 82.3068,-989.6793006 86.1351,-166.2948494 273.1961,-386.7029494 407.88,-483.2439494 59.8594,-42.6074 74.8244,-81.2597 63.6877,-177.8006 -18.7931,-119.9121 -56.2053,-143.1035 -699.8691,-487.19909 -370.46775,-200.9921 -759.72867,-417.625 -864.48277,-479.4687 -216.99079,-131.4179 -318.09069,-301.4882 -318.09069,-549.0428 v -170.0702 l 625.04471,23.1914 c 340.53805,15.4609 1418.35735,27.1465 2395.07655,27.1465 h 1770.032 v 135.373 c 0,162.3398 -67.3419,313.1738 -194.5435,433.0859 -44.8946,46.3828 -434.1554,266.7909 -860.6545,494.9295 l -770.8653,409.71469 -26.2754,154.6092 c -22.4473,139.1484 -14.965,166.2949 59.8594,220.4082 138.5122,96.7207 291.8152,282.2518 381.7785,452.3220494 78.6526,146.8788006 82.3068,204.9472006 82.3068,985.9040006 0,827.33946 0,831.29456 -101.0999,1028.51146 -228.4754,448.3669 -752.4203,707.4274 -1201.3665,595.2457 z"
       id="path28"
       style="stroke-width:1.76871" /><path
       d="m 7187.4829,2625.4003 c -366.8135,-104.4511 -651.1463,-394.4335 -759.7286,-769.451 -41.2405,-139.1483 -56.2053,-382.7479 -56.2053,-839.0251 0,-842.80046 33.7579,-970.443061 351.8486,-1299.07761 209.5083,-212.6777 231.9557,-255.2851 216.9907,-371.2421 -11.1365,-123.6874 -33.758,-139.1484 -609.9058,-436.86109 -988.03,-506.4354 -1137.6787,-607.1113 -1212.5032,-804.1482 -33.7579,-92.7656 -56.2052,-220.4082 -48.5488,-282.2518 l 11.1367,-112.1817 h 329.2274 c 179.5785,0 1253.7434,7.7305 2383.7659,11.6856 l 2058.3668,7.7304 v 174.0254 c 0,309.3984 -138.5122,417.6249 -1332.2222,1040.0172 -479.0502,247.37489 -490.1868,259.06039 -512.6342,398.20879 -22.4473,135.3731 -11.1365,154.6094 160.9595,320.9042 104.7542,100.4962 224.4731,262.835749 277.0242,386.703049 93.6176,204.947101 97.2718,243.599601 97.2718,931.790601 0,858.26146 -33.758,1020.78106 -280.6785,1303.03296 -269.5418,309.2186 -703.6972,448.5467 -1074.165,340.1404 z"
       id="path30"
       style="stroke-width:1.76871" /><path
       style="fill:#6ab446;stroke-width:1.20627;fill-opacity:1"
       d="m 13.535682,728.45946 c 0.646892,-18.7897 2.694293,-25.59139 11.168413,-37.10267 8.534483,-11.59327 13.115302,-14.42541 100.748255,-62.28884 67.42235,-36.82478 70.75899,-38.94812 74.33433,-47.30423 2.03491,-4.7559 2.0948,-14.51534 0.11026,-17.96671 -0.80581,-1.40139 -4.79139,-5.30142 -8.85686,-8.66674 -13.13388,-10.87201 -28.56797,-29.72185 -36.25097,-44.27382 -7.96001,-15.07659 -7.916,-14.61609 -8.50514,-88.99307 -0.72064,-90.97616 -0.25024,-95.28712 12.90632,-118.28182 11.42275,-19.96439 27.6828,-35.4508 47.68546,-45.41663 17.00146,-8.47056 29.85825,-11.34212 47.04464,-10.50739 14.56065,0.7072 22.76807,2.56311 36.36258,8.22252 27.54898,11.46867 52.25091,36.9178 62.66319,64.55868 2.60852,6.92469 3.31599,11.60758 4.34748,28.77718 1.45169,24.16355 0.41701,133.1483 -1.35545,142.77407 -3.30662,17.95736 -23.01742,46.34178 -42.75516,61.56933 -8.98906,6.93501 -9.6453,9.28257 -7.24133,25.9042 1.06747,7.38071 2.01287,13.50088 2.10091,13.60039 0.088,0.0995 20.78731,11.16106 45.9984,24.58122 52.41759,27.90248 95.92262,51.95027 107.70875,59.53694 19.67265,12.6632 29.2032,30.22239 29.2032,53.80435 v 8.09983 l -186.67069,0.76591 c -102.66888,0.42125 -200.51267,1.28562 -217.430642,1.92083 -16.917973,0.63521 -40.460195,1.53451 -52.316049,1.99843 l -21.556097,0.84353 z"
       id="path185"
       transform="matrix(10,0,0,-10,0,5110)" /></g></g>
</svg>
