<?xml version="1.0" encoding="UTF-8" standalone="no"?>
<!-- Svg Vector Icons : http://www.onlinewebfonts.com/icon -->

<svg
   version="1.1"
   x="0px"
   y="0px"
   viewBox="0 0 1000 1000"
   enable-background="new 0 0 1000 1000"
   xml:space="preserve"
   id="svg36"
   sodipodi:docname="linked-parent.svg"
   inkscape:version="1.2.2 (732a01da63, 2022-12-09)"
   xmlns:inkscape="http://www.inkscape.org/namespaces/inkscape"
   xmlns:sodipodi="http://sodipodi.sourceforge.net/DTD/sodipodi-0.dtd"
   xmlns="http://www.w3.org/2000/svg"
   xmlns:svg="http://www.w3.org/2000/svg"><defs
   id="defs40" /><sodipodi:namedview
   id="namedview38"
   pagecolor="#ffffff"
   bordercolor="#000000"
   borderopacity="0.25"
   inkscape:showpageshadow="2"
   inkscape:pageopacity="0.0"
   inkscape:pagecheckerboard="0"
   inkscape:deskcolor="#d1d1d1"
   showgrid="false"
   inkscape:zoom="0.35355339"
   inkscape:cx="513.35952"
   inkscape:cy="545.88643"
   inkscape:window-width="1920"
   inkscape:window-height="1009"
   inkscape:window-x="-8"
   inkscape:window-y="-8"
   inkscape:window-maximized="1"
   inkscape:current-layer="svg36" />
<metadata
   id="metadata22"> Svg Vector Icons : http://www.onlinewebfonts.com/icon </metadata>
<g
   id="g34"><g
     transform="translate(0.000000,511.000000) scale(0.100000,-0.100000)"
     id="g32"><path
       d="M4860.2,4999.6c-361.3-51.6-671-354.9-742-729.1c-28-148.4-28-1012.9,0-1163.5c40.9-215.1,169.9-408.6,389.3-589.3c73.1-60.2,77.4-71,68.8-163.5l-10.7-98.9l-367.7-184.9c-479.6-240.9-1002.2-522.6-1056-569.9c-73.1-64.5-120.4-200-120.4-346.3v-137.6l726.9,12.9c397.9,8.6,1288.2,15.1,1978.6,15.1h1251.7v129c0,148.4-30.1,217.2-133.3,316.1c-64.5,62.4-486,292.5-1135.5,623.7l-247.3,124.7l-15.1,118.3c-15,111.8-10.7,120.4,43,159.1c120.4,86,264.5,258.1,331.2,395.7l71,141.9l6.4,550.6c8.6,604.3-6.4,731.2-103.2,924.8c-66.7,133.3-249.5,318.3-378.5,382.8C5238.7,4999.6,5066.7,5027.5,4860.2,4999.6z"
       id="path24" /><path
       d="M4905.4,698.4l-55.9-43V160.7v-492.5H3215c-1606.5,0-1634.5,0-1677.5-43c-40.9-40.8-43-71-43-653.8c0-608.6,0-612.9,47.3-645.2c73.1-51.6,157-43,208.6,21.5c43,53.8,45.2,83.9,45.2,537.7v481.7H5000h3204.4v-481.7c0-453.8,2.1-483.9,45.2-537.7c51.6-64.5,135.5-73.1,208.6-21.5c47.3,32.3,47.3,36.5,47.3,645.2c0,582.8-2.1,612.9-43,653.8c-43,43-71,43-1677.5,43H5150.5v483.9v486l-53.8,51.6C5032.2,754.3,4980.6,756.4,4905.4,698.4z"
       id="path26" /><path
       d="M1509.6-2030.8c-189.3-47.3-331.2-163.4-425.8-344.1c-49.5-92.5-51.6-116.1-51.6-559.2c0-436.6,2.1-466.7,47.3-550.5c49.5-92.5,157-215.1,234.4-268.8c34.4-23.7,43-45.2,36.6-98.9c-10.8-66.7-32.3-79.6-402.2-271c-212.9-111.8-436.6-232.3-496.8-266.7c-124.7-73.1-182.8-167.7-182.8-305.4v-94.6l359.2,12.9c195.7,8.6,815.1,15.1,1376.4,15.1h1017.2v75.3c0,90.3-38.7,174.2-111.8,240.9c-25.8,25.8-249.5,148.4-494.6,275.3l-443,227.9l-15.1,86c-12.9,77.4-8.6,92.5,34.4,122.6c79.6,53.8,167.7,157,219.4,251.6c45.2,81.7,47.3,114,47.3,548.4c0,460.2,0,462.4-58.1,572.1C2068.7-2112.5,1767.6-1968.4,1509.6-2030.8z"
       id="path28" /><path
       d="M8200.1-2039.4c-210.8-58.1-374.2-219.4-436.6-428c-23.7-77.4-32.3-212.9-32.3-466.7c0-468.8,19.4-539.8,202.2-722.6c120.4-118.3,133.3-142,124.7-206.5c-6.4-68.8-19.4-77.4-350.5-243c-567.8-281.7-653.8-337.7-696.8-447.3c-19.4-51.6-32.3-122.6-27.9-157l6.4-62.4h189.2c103.2,0,720.5,4.3,1369.9,6.5l1182.9,4.3v96.8c0,172.1-79.6,232.3-765.6,578.5c-275.3,137.6-281.7,144.1-294.6,221.5c-12.9,75.3-6.4,86,92.5,178.5c60.2,55.9,129,146.2,159.2,215.1c53.8,114,55.9,135.5,55.9,518.3c0,477.4-19.4,567.8-161.3,724.8C8662.5-2056.6,8413-1979.1,8200.1-2039.4z"
       id="path30" /></g></g>
<path
   style="fill:#ff0000;stroke-width:1.20627"
   d="m 303.06579,395.51077 c 1.0497,-22.45767 5.57344,-30.95222 21.42154,-40.22469 13.54696,-7.9261 54.62788,-29.69721 94.23602,-49.94101 l 38.14435,-19.49566 0.74466,-4.50492 c 0.40958,-2.47771 0.75066,-7.0307 0.75795,-10.11777 0.0122,-5.13732 -0.47216,-6.07261 -5.71651,-11.03957 -3.15139,-2.9847 -7.47774,-6.8717 -9.61414,-8.63777 -10.42649,-8.61915 -23.02068,-27.67784 -28.3216,-42.85881 -3.47127,-9.94116 -4.97406,-40.07406 -4.12117,-82.63508 0.82397,-41.118425 1.77939,-47.703174 9.15255,-63.079242 12.70908,-26.503679 34.59471,-44.261787 62.03181,-50.332929 13.86701,-3.0684193 32.8232,-2.033607 46.53718,2.540451 25.93022,8.648564 50.60153,34.738313 57.26927,60.561846 3.38843,13.123116 4.43831,38.098334 3.5854,85.291774 l -0.80661,44.63209 -5.87359,11.45959 c -8.94266,17.44744 -17.20569,27.5941 -34.76009,42.68393 l -4.04846,3.48009 0.73475,12.06024 c 0.4041,6.63315 0.88875,12.17115 1.07699,12.30668 0.18825,0.13555 16.89836,8.68238 37.13358,18.99298 20.23523,10.31059 46.0193,23.74227 57.29795,29.84817 40.23547,21.78218 47.03825,26.60289 53.08459,37.61777 3.16399,5.764 3.59584,7.84015 4.00771,19.26804 l 0.46162,12.80798 -182.57671,0.76264 c -100.4172,0.41945 -189.30509,1.10376 -197.52865,1.52066 l -14.95194,0.75801 z"
   id="path4718" /><path
   style="fill:#6ab446;fill-opacity:1;stroke-width:0.353553"
   d="m 302.46721,406.19912 c 0.005,-4.10299 0.74803,-15.91228 1.2549,-19.94204 1.98598,-15.78941 6.87357,-22.94594 21.54701,-31.54969 14.88172,-8.72587 55.79953,-30.2893 109.53176,-57.72254 11.99736,-6.12532 21.88556,-11.37558 21.97377,-11.66726 0.56175,-1.85756 1.29098,-8.97921 1.33604,-13.04785 0.0444,-4.00781 -0.0554,-5.04162 -0.60076,-6.22081 -0.78343,-1.69409 -6.38469,-7.29969 -13.29134,-13.30166 -7.37573,-6.40959 -12.97122,-13.092 -19.0587,-22.76079 -3.82126,-6.06935 -8.74992,-16.01554 -10.33663,-20.85965 -1.92826,-5.88688 -2.94095,-13.15352 -3.89247,-27.93072 -0.60326,-9.36877 -0.58817,-61.23984 0.0218,-74.95332 1.08187,-24.322854 2.49719,-30.95274 9.62303,-45.078054 10.74908,-21.307562 27.26542,-36.63851 48.1531,-44.69711 10.50317,-4.052193 19.13182,-5.608931 31.01898,-5.596292 14.79066,0.01573 26.29675,2.471489 37.65343,8.036436 9.23978,4.52763 16.77262,10.002262 24.77883,18.008468 12.50051,12.500513 20.7958,26.659036 23.96675,40.90681 3.37598,15.169013 4.10002,44.980182 2.68599,110.592242 l -0.37655,17.47223 -3.39449,6.5694 c -6.64075,12.8519 -11.07697,20.10231 -16.24186,26.54517 -3.53911,4.4148 -13.06534,13.98202 -19.36212,19.44544 l -5.50102,4.77297 -0.007,2.20101 c -0.008,2.4678 1.34152,20.83853 1.59178,21.66384 0.0884,0.29168 11.49836,6.32558 25.35538,13.40866 79.16222,40.46414 105.02402,54.83051 114.54419,63.62988 4.88582,4.51591 9.6094,12.25194 10.70796,17.53699 0.45446,2.18631 0.86359,8.43338 1.35754,20.72898 l 0.15097,3.75841 -25.85752,0.2132 c -14.22165,0.11727 -59.82518,0.30586 -101.34119,0.41906 -41.51601,0.11321 -95.60967,0.3549 -120.20815,0.53709 -24.59848,0.18218 -67.91319,0.43501 -96.25491,0.56179 l -51.53041,0.23052 0.002,-1.91081 z"
   id="path2851" /></svg>
